# xmcd
#
# Track frame offsets:
#	150
#	12508
#	21090
#	33994
#	47150
#	64402
#	70546
#	82831
#	95124
#	100065
#	106483
#	120193
#	134659
#	146631
#	163429
#
# Disc length: 2309 seconds
#
# Revision: 1
# Processed by: cddbd v1.5.2PL0 Copyright (c) Steve Scherf et al.
# Submitted via: audiograbber 1.83.01
#
DISCID=cf09030f
DTITLE=Barnesanger - Alle våre barnesanger 3
DYEAR=2005
DGENRE=Folk
TTITLE0=Grevling i taket
TTITLE1=Papagøye fra Maerika
TTITLE2=Tuppen og lillemor
TTITLE3=Den første løvetann
TTITLE4=Sure Sivert
TTITLE5=Tut tut sier onkel bil
TTITLE6=I morgen
TTITLE7=Se min kjole
TTITLE8=Her kommer Ole Brumm
TTITLE9=Hvis dine ører henger ned
TTITLE10=Sjørøvervise
TTITLE11=Her kommer Gråtass
TTITLE12=Haba Haba
TTITLE13=Gøy på landet
TTITLE14=So ro Lillemann
EXTD=
EXTT0=
EXTT1=
EXTT2=
EXTT3=
EXTT4=
EXTT5=
EXTT6=
EXTT7=
EXTT8=
EXTT9=
EXTT10=
EXTT11=
EXTT12=
EXTT13=
EXTT14=
PLAYORDER=
